<?xml version="1.0" encoding="UTF-8" standalone="no"?>
<svg width="599px" height="515px" viewBox="0 0 599 515" version="1.1" xmlns="http://www.w3.org/2000/svg" xmlns:xlink="http://www.w3.org/1999/xlink" xmlns:sketch="http://www.bohemiancoding.com/sketch/ns">
    <!-- Generator: Sketch 3.3.2 (12043) - http://www.bohemiancoding.com/sketch -->
    <title>Group</title>
    <desc>Created with Sketch.</desc>
    <defs></defs>
    <g id="Page-1" stroke="none" stroke-width="1" fill="none" fill-rule="evenodd" sketch:type="MSPage">
        <g id="Artboard-1" sketch:type="MSArtboardGroup" transform="translate(-1.000000, -1.000000)">
            <g id="Group" sketch:type="MSLayerGroup" transform="translate(1.000000, 0.000000)">
                <g id="Path-27-Copy-3-+-Rectangle-1-Copy-4-+-Shape" transform="translate(445.371103, 195.157599)" sketch:type="MSShapeGroup">
                    <path d="M1.06796438,46.622646 L103.298922,99.166668 L20.8294369,41.4610911 L1.06796438,46.622646 Z" id="Path-27-Copy-3" fill="#C78E00" transform="translate(52.183443, 70.313880) scale(-1, 1) translate(-52.183443, -70.313880) "></path>
                    <g id="Rectangle-1-Copy-4-+-Shape" transform="translate(74.647486, 2.014342)">
                        <rect id="Rectangle-1-Copy-4" fill="#C78E00" x="1.83476257" y="0.255280777" width="76.8173527" height="76.8173527" rx="7"></rect>
                        <path d="M56.8525962,52.1588974 C59.1363554,52.1588974 60.9841241,50.2903672 60.9841241,48.0066081 L61.0048856,25.1690168 C61.0048856,22.8852576 59.1363554,21.0167274 56.8525962,21.0167274 L23.6342816,21.0167274 C21.3505224,21.0167274 19.4819922,22.8852576 19.4819922,25.1690168 L19.4819922,48.0066081 C19.4819922,50.2903672 21.3505224,52.1588974 23.6342816,52.1588974 L15.3297029,52.1588974 C15.3297029,54.4426566 17.1982331,56.3111868 19.4819922,56.3111868 L61.0048856,56.3111868 C63.2886447,56.3111868 65.1571749,54.4426566 65.1571749,52.1588974 L56.8525962,52.1588974 L56.8525962,52.1588974 Z M23.6342816,25.1690168 L56.8525962,25.1690168 L56.8525962,48.0066081 L23.6342816,48.0066081 L23.6342816,25.1690168 L23.6342816,25.1690168 Z M40.2434389,54.2350421 C39.1015593,54.2350421 38.1672942,53.300777 38.1672942,52.1588974 C38.1672942,51.0170179 39.1015593,50.0827528 40.2434389,50.0827528 C41.3853185,50.0827528 42.3195836,51.0170179 42.3195836,52.1588974 C42.3195836,53.300777 41.3853185,54.2350421 40.2434389,54.2350421 L40.2434389,54.2350421 Z" id="Shape" fill="#FFFFFF"></path>
                    </g>
                </g>
                <circle id="Oval-1" stroke="#6A6A6A" fill="#4A7F93" sketch:type="MSShapeGroup" cx="288.622181" cy="275.089168" r="202.424105"></circle>
                <path d="M340.948511,139.101693 L314.626032,146.05776 L333.69836,165.612385 L329.981138,193.122963 L351.319874,207.027255 L339.015399,255.468772 L379.426462,213.308889 L402.588518,213.308889 L376.787548,195.020785 L384.257282,185.276802 L379.759757,169.329607 L364.592865,173.791842 L364.592865,154.794015 L340.948511,139.101693 Z" id="Path-19" fill="#70AF43" sketch:type="MSShapeGroup"></path>
                <path d="M136.255271,143.119378 L189.084521,144.605483 L176.740835,179.664217 L137.592373,190.815882 L177.63485,190.815882 L184.586996,217.734371 L159.04482,246.025252 L139.897991,243.907847 L138.188383,286.475526 L128.483611,308.857279 L112.128619,291.980779 L123.539079,274.355344 L104.913758,273.614253 L97.7028188,304.210752 L89.0410646,305.851829 C89.0410646,305.851829 71.4103103,213.700029 136.255271,143.119378 Z" id="Path-20" fill="#70AF43" sketch:type="MSShapeGroup"></path>
                <path d="M260.728369,127.070335 L228.144763,138.136349 L223.46085,165.684054 L251.388332,155.729582 L267.987353,175.082755 L287.720303,152.422746 L260.728369,127.070335 Z" id="Path-21" fill="#70AF43" sketch:type="MSShapeGroup"></path>
                <path d="M304.523106,195.896371 L273.492571,195.309724 L272.905924,220.575682 L303.176906,233.281219 L316.672873,215.305122 L304.523106,195.896371 Z" id="Path-22" fill="#70AF43" sketch:type="MSShapeGroup"></path>
                <path d="M392.260787,238.900679 L331.749699,281.466546 L325.308934,336.944821 L378.209049,327.573908 L373.759795,360.771949 L357.392346,396.313491 L299.000001,426.469073 L315.792903,465.608844 L344.307031,457.439014 L352.50465,439.669787 L371.064307,415.984689 L375.74822,457.176566 C375.74822,457.176566 457.148446,423.146576 483.277089,326.44118 C483.441141,326.441176 475.490549,290.982577 475.490549,290.982577 L489.956417,281.466544 C489.956417,281.466544 494.917799,222.031755 457.148446,164.540148 C455.109398,164.540148 426.277047,166.094707 426.277047,166.094707 L405.58076,182.107081 L425.486617,215.101339 L397.383141,225.784489 L392.260787,238.900679 Z" id="Path-23" fill="#70AF43" sketch:type="MSShapeGroup"></path>
                <path d="M112.611343,372.893641 C111.485422,370.885895 155.190585,376.290304 155.190585,376.290304 L213.975695,420.992801 L221.410673,457.908331 C221.410673,457.908331 230.495972,462.252396 239.994169,470.477934 C239.994169,470.477934 158.906881,455.685981 112.611343,372.893641 Z" id="Path-24" fill="#70AF43" sketch:type="MSShapeGroup"></path>
                <path d="M186.125841,101.413554 L201.342298,114.60826 L230.202463,100.495704 L269.104397,112.090376 L302.032868,103.46011 L314.123674,119.453017 L365.562937,112.866827 L365.091609,99.9772433 L374.524945,92.4786175 C374.524945,92.4786175 283.859379,43.6623141 186.125841,101.413554 Z" id="Path-25" fill="#FFFFFF" sketch:type="MSShapeGroup"></path>
                <path d="M187.190603,212.976092 C183.340652,193.726338 166.434347,179.275074 146.124461,179.275074 C129.999305,179.275074 115.994412,188.425681 109.019863,201.816814 C92.2251506,203.602299 79.1687958,217.830378 79.1687958,235.071462 C79.1687958,253.540066 94.1780242,268.549294 112.646629,268.549294 L185.181933,268.549294 C200.581736,268.549294 213.080127,256.050904 213.080127,240.6511 C213.080127,225.920854 201.641867,213.980427 187.190603,212.976092 L187.190603,212.976092 Z" id="Shape" fill-opacity="0.9" fill="#FFFFFF" sketch:type="MSShapeGroup"></path>
                <path d="M444.048187,308.790187 C440.198236,289.540433 423.29193,275.089168 402.982045,275.089168 C386.856889,275.089168 372.851996,284.239776 365.877447,297.630909 C349.082734,299.416393 336.02638,313.644472 336.02638,330.885556 C336.02638,349.354161 351.035608,364.363389 369.504212,364.363389 L442.039517,364.363389 C457.43932,364.363389 469.937711,351.864998 469.937711,336.465195 C469.937711,321.734949 458.499451,309.794522 444.048187,308.790187 L444.048187,308.790187 Z" id="Shape-Copy" fill-opacity="0.9" fill="#FFFFFF" sketch:type="MSShapeGroup"></path>
                <g id="Rectangle-1-+-Shape-+-Path-27" transform="translate(24.569223, 6.955066)" sketch:type="MSShapeGroup">
                    <rect id="Rectangle-1" fill="#C78E00" x="0" y="0" width="76.8173527" height="76.8173527" rx="7"></rect>
                    <path d="M57.0939783,17.6472297 L19.7233743,17.6472297 C17.4396152,17.6472297 15.571085,19.5157599 15.571085,21.799519 L15.571085,46.713255 C15.571085,48.9970141 17.4396152,50.8655443 19.7233743,50.8655443 L34.256387,50.8655443 L30.1040977,57.0939783 L30.1040977,59.170123 L46.713255,59.170123 L46.713255,57.0939783 L42.5609657,50.8655443 L57.0939783,50.8655443 C59.3777375,50.8655443 61.2462677,48.9970141 61.2462677,46.713255 L61.2462677,21.799519 C61.2462677,19.5157599 59.3777375,17.6472297 57.0939783,17.6472297 L57.0939783,17.6472297 Z M57.0939783,42.5609657 L19.7233743,42.5609657 L19.7233743,21.799519 L57.0939783,21.799519 L57.0939783,42.5609657 L57.0939783,42.5609657 Z" id="Shape" fill="#FFFFFF"></path>
                    <path d="M49.0344911,75.044532 L123.759969,171.068698 L63.4790928,65.6117939 L49.0344911,75.044532 Z" id="Path-27" fill="#C78E00"></path>
                </g>
                <path d="M59.4814776,397.152826 L147.443963,487.893997 L76.4848225,388.239053 L59.4814776,397.152826 Z" id="Path-27-Copy-2" fill="#C78E00" sketch:type="MSShapeGroup" transform="translate(103.462720, 438.066525) scale(1, -1) translate(-103.462720, -438.066525) "></path>
                <path d="M408.008365,397.671791 L482.733842,493.695957 L422.452966,388.239053 L408.008365,397.671791 Z" id="Path-27-Copy-4" fill="#C78E00" sketch:type="MSShapeGroup" transform="translate(445.371103, 440.967505) scale(-1, -1) translate(-445.371103, -440.967505) "></path>
                <g id="Path-27-Copy-+-Rectangle-1-Copy-+-Shape" transform="translate(358.173027, 0.000000)" sketch:type="MSShapeGroup">
                    <path d="M1.09156026,76.0826043 L75.8170377,172.10677 L15.536162,66.6498662 L1.09156026,76.0826043 Z" id="Path-27-Copy" fill="#C78E00" transform="translate(38.454299, 119.378318) scale(-1, 1) translate(-38.454299, -119.378318) "></path>
                    <g id="Rectangle-1-Copy-+-Shape" transform="translate(26.989881, 0.000000)">
                        <rect id="Rectangle-1-Copy" fill="#C78E00" x="1.81890549" y="1.03807233" width="76.8173527" height="76.8173527" rx="7"></rect>
                        <path d="M48.5321605,16.6091573 L31.9230032,16.6091573 C29.0579235,16.6091573 26.7326415,18.9344394 26.7326415,21.799519 L26.7326415,57.0939783 C26.7326415,59.959058 29.0579235,62.28434 31.9230032,62.28434 L48.5321605,62.28434 C51.3972401,62.28434 53.7225222,59.959058 53.7225222,57.0939783 L53.7225222,21.799519 C53.7225222,18.9344394 51.3972401,16.6091573 48.5321605,16.6091573 L48.5321605,16.6091573 Z M40.2275818,60.2081953 C38.5043817,60.2081953 37.1133648,58.8171784 37.1133648,57.0939783 C37.1133648,55.3707783 38.5043817,53.9797613 40.2275818,53.9797613 C41.9507819,53.9797613 43.3417988,55.3707783 43.3417988,57.0939783 C43.3417988,58.8171784 41.9507819,60.2081953 40.2275818,60.2081953 L40.2275818,60.2081953 Z M49.5702328,51.9036167 L30.8849308,51.9036167 L30.8849308,22.8375913 L49.5702328,22.8375913 L49.5702328,51.9036167 L49.5702328,51.9036167 Z" id="Shape" fill="#FFFFFF"></path>
                    </g>
                </g>
                <g id="Rectangle-1-Copy-2-+-Shape-3" transform="translate(459.904116, 438.066525)" sketch:type="MSShapeGroup">
                    <rect id="Rectangle-1-Copy-2" fill="#C78E00" x="0.404355743" y="0.27418575" width="76.8173527" height="76.8173527" rx="7"></rect>
                    <path d="M53.3460447,13.7691261 L24.2800194,13.7691261 C21.4149398,13.7691261 19.0896577,16.0944081 19.0896577,18.9594877 L19.0896577,58.4062364 C19.0896577,61.2713161 21.4149398,63.5965981 24.2800194,63.5965981 L53.3460447,63.5965981 C56.2111244,63.5965981 58.5364064,61.2713161 58.5364064,58.4062364 L58.5364064,18.9594877 C58.5364064,16.0944081 56.2111244,13.7691261 53.3460447,13.7691261 L53.3460447,13.7691261 Z M38.8130321,61.5204534 C37.089832,61.5204534 35.6988151,60.1294365 35.6988151,58.4062364 C35.6988151,56.6830363 37.089832,55.2920194 38.8130321,55.2920194 C40.5362321,55.2920194 41.9272491,56.6830363 41.9272491,58.4062364 C41.9272491,60.1294365 40.5362321,61.5204534 38.8130321,61.5204534 L38.8130321,61.5204534 Z M54.3841171,53.2158747 L23.2419471,53.2158747 L23.2419471,19.9975601 L54.3841171,19.9975601 L54.3841171,53.2158747 L54.3841171,53.2158747 Z" id="Shape-3" fill="#FFFFFF"></path>
                </g>
                <g id="Rectangle-1-Copy-3-+-Shape" transform="translate(0.275298, 438.066525)" sketch:type="MSShapeGroup">
                    <rect id="Rectangle-1-Copy-3" fill="#C78E00" x="0.567329393" y="0.686603478" width="76.8173527" height="76.8173527" rx="7"></rect>
                    <path d="M56.6311007,39.0952798 C56.6311007,33.8218724 54.1604885,29.109024 50.3196209,26.0778528 L48.326522,14.1815438 L31.7173647,14.1815438 L29.7450273,26.0778528 C25.8833982,29.109024 23.412786,33.8011109 23.412786,39.0952798 C23.412786,44.3894487 25.8833982,49.0815357 29.7450273,52.1127069 L31.7173647,64.0090158 L48.326522,64.0090158 L50.3196209,52.1127069 C54.1604885,49.0815357 56.6311007,44.3686873 56.6311007,39.0952798 L56.6311007,39.0952798 Z M27.5650754,39.0952798 C27.5650754,32.223241 33.1499045,26.6384118 40.0219434,26.6384118 C46.8939822,26.6384118 52.4788114,32.223241 52.4788114,39.0952798 C52.4788114,45.9673187 46.8939822,51.5521478 40.0219434,51.5521478 C33.1499045,51.5521478 27.5650754,45.9673187 27.5650754,39.0952798 L27.5650754,39.0952798 Z" id="Shape" fill="#FFFFFF"></path>
                </g>
            </g>
        </g>
    </g>
</svg>